<svg width="10" height="12" viewBox="0 0 10 12" fill="none" xmlns="http://www.w3.org/2000/svg">
<path d="M5 2.72727V4.36364L7.5 2.18182L5 0V1.63636C2.2375 1.63636 0 3.58909 0 6C0 6.85636 0.2875 7.65273 0.775 8.32364L1.6875 7.52727C1.40625 7.07455 1.25 6.55091 1.25 6C1.25 4.19455 2.93125 2.72727 5 2.72727ZM9.225 3.67636L8.3125 4.47273C8.5875 4.93091 8.75 5.44909 8.75 6C8.75 7.80545 7.06875 9.27273 5 9.27273V7.63636L2.5 9.81818L5 12V10.3636C7.7625 10.3636 10 8.41091 10 6C10 5.14364 9.7125 4.34727 9.225 3.67636Z" fill="black"/>
</svg>
