<svg width="12" height="12" viewBox="0 0 12 12" fill="none" xmlns="http://www.w3.org/2000/svg">
<path d="M4.2 5.85C3.786 5.85 3.45 6.186 3.45 6.6C3.45 7.014 3.786 7.35 4.2 7.35C4.614 7.35 4.95 7.014 4.95 6.6C4.95 6.186 4.614 5.85 4.2 5.85ZM7.8 5.85C7.386 5.85 7.05 6.186 7.05 6.6C7.05 7.014 7.386 7.35 7.8 7.35C8.214 7.35 8.55 7.014 8.55 6.6C8.55 6.186 8.214 5.85 7.8 5.85ZM6 0C2.688 0 0 2.688 0 6C0 9.312 2.688 12 6 12C9.312 12 12 9.312 12 6C12 2.688 9.312 0 6 0ZM6 10.8C3.354 10.8 1.2 8.646 1.2 6C1.2 5.826 1.212 5.652 1.23 5.484C2.646 4.854 3.768 3.696 4.356 2.262C5.442 3.798 7.23 4.8 9.252 4.8C9.72 4.8 10.17 4.746 10.602 4.644C10.728 5.07 10.8 5.526 10.8 6C10.8 8.646 8.646 10.8 6 10.8Z" fill="#DADADA"/>
</svg>
