<svg width="15" height="15" viewBox="0 0 15 15" fill="none" xmlns="http://www.w3.org/2000/svg">
<path fill-rule="evenodd" clip-rule="evenodd" d="M7.12442 2.80765V0H6.62442V2.80765H7.12442ZM12.4996 0.311905L14.9997 4.05543L9.53391 7.87476C9.83322 8.51513 10.0004 9.22943 10.0004 9.9827C10.0004 12.7394 7.76171 14.9741 5.00019 14.9741L4.96964 14.974L5.00071 15H0.129134L0.899347 12.8394C0.332524 12.03 0 11.0451 0 9.9827C0 7.22604 2.23866 4.99133 5.00019 4.99133C5.72754 4.99133 6.41862 5.14636 7.04208 5.42512L7.81196 3.11955L12.4996 0.311905ZM5.00168 11.8545C6.03725 11.8545 6.87675 11.0165 6.87675 9.98278C6.87675 8.94903 6.03725 8.11102 5.00168 8.11102C3.9661 8.11102 3.12661 8.94903 3.12661 9.98278C3.12661 11.0165 3.9661 11.8545 5.00168 11.8545ZM8.12561 9.9827C8.12561 11.7056 6.72645 13.1023 5.00049 13.1023C3.27454 13.1023 1.87538 11.7056 1.87538 9.9827C1.87538 8.25979 3.27454 6.86309 5.00049 6.86309C6.72645 6.86309 8.12561 8.25979 8.12561 9.9827ZM3.95669 1.10606L5.55328 3.4175L5.14141 3.70098L3.54482 1.38955L3.95669 1.10606ZM4.68798 4.11749H1.87538V4.61749H4.68798V4.11749Z" fill="#333333"/>
</svg>
