<svg width="20" height="18" viewBox="0 0 20 18" fill="none" xmlns="http://www.w3.org/2000/svg">
<path d="M12.5 0.5H5.00004C4.30837 0.5 3.71671 0.916666 3.46671 1.51667L0.950041 7.39167C0.875041 7.58333 0.833374 7.78333 0.833374 8V9.66667C0.833374 10.5833 1.58337 11.3333 2.50004 11.3333H7.75837L6.96671 15.1417L6.94171 15.4083C6.94171 15.75 7.08337 16.0667 7.30837 16.2917L8.19171 17.1667L13.6834 11.675C13.9834 11.375 14.1667 10.9583 14.1667 10.5V2.16667C14.1667 1.25 13.4167 0.5 12.5 0.5ZM15.8334 0.5V10.5H19.1667V0.5H15.8334Z" fill="#9A9A9A"/>
</svg>
