<svg width="18" height="18" viewBox="0 0 18 18" fill="none" xmlns="http://www.w3.org/2000/svg">
<path d="M8.99996 8.08317C8.49163 8.08317 8.08329 8.4915 8.08329 8.99984C8.08329 9.50817 8.49163 9.9165 8.99996 9.9165C9.50829 9.9165 9.91663 9.50817 9.91663 8.99984C9.91663 8.4915 9.50829 8.08317 8.99996 8.08317ZM8.99996 0.666504C4.39996 0.666504 0.666626 4.39984 0.666626 8.99984C0.666626 13.5998 4.39996 17.3332 8.99996 17.3332C13.6 17.3332 17.3333 13.5998 17.3333 8.99984C17.3333 4.39984 13.6 0.666504 8.99996 0.666504ZM10.825 10.8248L3.99996 13.9998L7.17496 7.17484L14 3.99984L10.825 10.8248Z" fill="#9A9A9A"/>
</svg>
