<svg width="20" height="20" viewBox="0 0 20 20" fill="none" xmlns="http://www.w3.org/2000/svg">
<path d="M0.833374 17.5002H4.16671V7.50016H0.833374V17.5002ZM19.1667 8.3335C19.1667 7.41683 18.4167 6.66683 17.5 6.66683H12.2417L13.0334 2.8585L13.0584 2.59183C13.0584 2.25016 12.9167 1.9335 12.6917 1.7085L11.8084 0.833496L6.32504 6.32516C6.01671 6.62516 5.83337 7.04183 5.83337 7.50016V15.8335C5.83337 16.7502 6.58337 17.5002 7.50004 17.5002H15C15.6917 17.5002 16.2834 17.0835 16.5334 16.4835L19.05 10.6085C19.125 10.4168 19.1667 10.2168 19.1667 10.0002V8.3335Z" fill="#2C2F51"/>
</svg>
