<svg width="15" height="11" viewBox="0 0 15 11" fill="none" xmlns="http://www.w3.org/2000/svg">
<path d="M10.875 5.25C11.91 5.25 12.7425 4.41 12.7425 3.375C12.7425 2.34 11.91 1.5 10.875 1.5C9.84 1.5 9 2.34 9 3.375C9 4.41 9.84 5.25 10.875 5.25ZM5.25 4.5C6.495 4.5 7.4925 3.495 7.4925 2.25C7.4925 1.005 6.495 0 5.25 0C4.005 0 3 1.005 3 2.25C3 3.495 4.005 4.5 5.25 4.5ZM10.875 6.75C9.5025 6.75 6.75 7.44 6.75 8.8125V10.5H15V8.8125C15 7.44 12.2475 6.75 10.875 6.75ZM5.25 6C3.5025 6 0 6.8775 0 8.625V10.5H5.25V8.8125C5.25 8.175 5.4975 7.0575 7.0275 6.21C6.375 6.075 5.745 6 5.25 6Z" fill="#DADADA"/>
</svg>
