<svg width="20" height="20" viewBox="0 0 20 20" fill="none" xmlns="http://www.w3.org/2000/svg">
<g clip-path="url(#clip0_1006_1299)">
<path d="M17.0416 4.55L15.8666 3.375L14.375 4.875L15.55 6.05L17.0416 4.55ZM10.8333 1.29167L9.16663 1.29167L9.16663 3.75L10.8333 3.75L10.8333 1.29167ZM16.6666 11.25L19.1666 11.25L19.1666 9.58333L16.6666 9.58333L16.6666 11.25ZM7.49996 14.7417L7.49996 18.75L12.5 18.75L12.5 14.7417C13.9916 13.875 15 12.2667 15 10.4167C15 7.65833 12.7583 5.41667 9.99996 5.41667C7.24163 5.41667 4.99996 7.65833 4.99996 10.4167C4.99996 12.2667 6.00829 13.875 7.49996 14.7417ZM3.33329 11.25L3.33329 9.58333L0.833295 9.58333L0.833295 11.25L3.33329 11.25ZM5.6333 4.86667L4.14163 3.36667L2.96663 4.54167L4.46663 6.03333L5.6333 4.86667Z" fill="#9A9A9A"/>
</g>
<defs>
<clipPath id="clip0_1006_1299">
<rect width="20" height="20" fill="white" transform="translate(20 20) rotate(-180)"/>
</clipPath>
</defs>
</svg>
